<mxfile host="app.diagrams.net" modified="2021-09-27T08:46:48.839Z" agent="5.0 (Macintosh; Intel Mac OS X 10_15_7) AppleWebKit/605.1.15 (KHTML, like Gecko) Version/15.0 Safari/605.1.15" etag="yHd_VE8IlR2mW3G2YY8k" version="15.3.4" type="github">
  <diagram id="ZsS08QNKmyVbRj25lgyG" name="Page-1">
    <mxGraphModel dx="946" dy="541" grid="1" gridSize="10" guides="1" tooltips="1" connect="1" arrows="1" fold="1" page="1" pageScale="1" pageWidth="827" pageHeight="1169" math="0" shadow="0">
      <root>
        <mxCell id="0" />
        <mxCell id="1" parent="0" />
        <mxCell id="9_BYIWrbuB3zAvh1D8LM-1" value="&lt;font style=&quot;font-size: 14px&quot;&gt;Başla&lt;/font&gt;" style="ellipse;whiteSpace=wrap;html=1;hachureGap=4;pointerEvents=0;" vertex="1" parent="1">
          <mxGeometry x="354" y="20" width="120" height="80" as="geometry" />
        </mxCell>
        <mxCell id="9_BYIWrbuB3zAvh1D8LM-2" value="" style="endArrow=classic;html=1;startSize=14;endSize=14;sourcePerimeterSpacing=8;targetPerimeterSpacing=8;" edge="1" parent="1">
          <mxGeometry width="50" height="50" relative="1" as="geometry">
            <mxPoint x="413" y="100" as="sourcePoint" />
            <mxPoint x="413" y="170" as="targetPoint" />
          </mxGeometry>
        </mxCell>
        <mxCell id="9_BYIWrbuB3zAvh1D8LM-3" value="&lt;font style=&quot;font-size: 14px&quot;&gt;&quot;A sayısını giriniz&quot; yaz&lt;/font&gt;" style="shape=parallelogram;perimeter=parallelogramPerimeter;whiteSpace=wrap;html=1;fixedSize=1;hachureGap=4;pointerEvents=0;" vertex="1" parent="1">
          <mxGeometry x="326" y="180" width="176" height="70" as="geometry" />
        </mxCell>
        <mxCell id="9_BYIWrbuB3zAvh1D8LM-4" value="" style="endArrow=classic;html=1;startSize=14;endSize=14;sourcePerimeterSpacing=8;targetPerimeterSpacing=8;" edge="1" parent="1">
          <mxGeometry width="50" height="50" relative="1" as="geometry">
            <mxPoint x="413" y="250" as="sourcePoint" />
            <mxPoint x="413" y="330" as="targetPoint" />
          </mxGeometry>
        </mxCell>
        <mxCell id="9_BYIWrbuB3zAvh1D8LM-5" value="&lt;font style=&quot;font-size: 14px&quot;&gt;if a&amp;gt;0&amp;nbsp;&lt;/font&gt;" style="rhombus;whiteSpace=wrap;html=1;hachureGap=4;pointerEvents=0;" vertex="1" parent="1">
          <mxGeometry x="357" y="340" width="114" height="110" as="geometry" />
        </mxCell>
        <mxCell id="9_BYIWrbuB3zAvh1D8LM-6" value="" style="endArrow=classic;html=1;startSize=14;endSize=14;sourcePerimeterSpacing=8;targetPerimeterSpacing=8;" edge="1" parent="1">
          <mxGeometry width="50" height="50" relative="1" as="geometry">
            <mxPoint x="480" y="394.5" as="sourcePoint" />
            <mxPoint x="570" y="395" as="targetPoint" />
          </mxGeometry>
        </mxCell>
        <mxCell id="9_BYIWrbuB3zAvh1D8LM-7" value="True" style="text;strokeColor=none;fillColor=none;align=left;verticalAlign=middle;spacingLeft=4;spacingRight=4;overflow=hidden;points=[[0,0.5],[1,0.5]];portConstraint=eastwest;rotatable=0;hachureGap=4;pointerEvents=0;fontSize=14;" vertex="1" parent="1">
          <mxGeometry x="490" y="590" width="80" height="30" as="geometry" />
        </mxCell>
        <mxCell id="9_BYIWrbuB3zAvh1D8LM-8" value="&quot;A sıfırdan büyüktür&quot; yaz" style="shape=parallelogram;perimeter=parallelogramPerimeter;whiteSpace=wrap;html=1;fixedSize=1;hachureGap=4;pointerEvents=0;fontSize=14;" vertex="1" parent="1">
          <mxGeometry x="590" y="370" width="190" height="60" as="geometry" />
        </mxCell>
        <mxCell id="9_BYIWrbuB3zAvh1D8LM-10" value="" style="endArrow=classic;html=1;fontSize=14;startSize=14;endSize=14;sourcePerimeterSpacing=8;targetPerimeterSpacing=8;" edge="1" parent="1">
          <mxGeometry width="50" height="50" relative="1" as="geometry">
            <mxPoint x="414" y="456" as="sourcePoint" />
            <mxPoint x="414" y="560" as="targetPoint" />
          </mxGeometry>
        </mxCell>
        <mxCell id="9_BYIWrbuB3zAvh1D8LM-11" value="" style="endArrow=none;html=1;fontSize=14;startSize=14;endSize=14;sourcePerimeterSpacing=8;targetPerimeterSpacing=8;entryX=0.5;entryY=1;entryDx=0;entryDy=0;" edge="1" parent="1" target="9_BYIWrbuB3zAvh1D8LM-8">
          <mxGeometry width="50" height="50" relative="1" as="geometry">
            <mxPoint x="420" y="500" as="sourcePoint" />
            <mxPoint x="710" y="450" as="targetPoint" />
            <Array as="points">
              <mxPoint x="685" y="500" />
            </Array>
          </mxGeometry>
        </mxCell>
        <mxCell id="9_BYIWrbuB3zAvh1D8LM-12" value="False" style="text;strokeColor=none;fillColor=none;align=left;verticalAlign=middle;spacingLeft=4;spacingRight=4;overflow=hidden;points=[[0,0.5],[1,0.5]];portConstraint=eastwest;rotatable=0;hachureGap=4;pointerEvents=0;fontSize=14;" vertex="1" parent="1">
          <mxGeometry x="370" y="700" width="44" height="30" as="geometry" />
        </mxCell>
        <mxCell id="9_BYIWrbuB3zAvh1D8LM-14" value="&lt;font style=&quot;font-size: 14px&quot;&gt;if a&amp;lt;0&lt;/font&gt;" style="rhombus;whiteSpace=wrap;html=1;hachureGap=4;pointerEvents=0;" vertex="1" parent="1">
          <mxGeometry x="357" y="570" width="114" height="110" as="geometry" />
        </mxCell>
        <mxCell id="9_BYIWrbuB3zAvh1D8LM-15" value="True" style="text;strokeColor=none;fillColor=none;align=left;verticalAlign=middle;spacingLeft=4;spacingRight=4;overflow=hidden;points=[[0,0.5],[1,0.5]];portConstraint=eastwest;rotatable=0;hachureGap=4;pointerEvents=0;fontSize=14;" vertex="1" parent="1">
          <mxGeometry x="490" y="370" width="80" height="30" as="geometry" />
        </mxCell>
        <mxCell id="9_BYIWrbuB3zAvh1D8LM-16" value="" style="endArrow=classic;html=1;startSize=14;endSize=14;sourcePerimeterSpacing=8;targetPerimeterSpacing=8;" edge="1" parent="1">
          <mxGeometry width="50" height="50" relative="1" as="geometry">
            <mxPoint x="480" y="624.5" as="sourcePoint" />
            <mxPoint x="570" y="625" as="targetPoint" />
          </mxGeometry>
        </mxCell>
        <mxCell id="9_BYIWrbuB3zAvh1D8LM-17" value="&quot;A sıfırdan küçüktür&quot; yaz" style="shape=parallelogram;perimeter=parallelogramPerimeter;whiteSpace=wrap;html=1;fixedSize=1;hachureGap=4;pointerEvents=0;fontSize=14;" vertex="1" parent="1">
          <mxGeometry x="570" y="595" width="190" height="60" as="geometry" />
        </mxCell>
        <mxCell id="9_BYIWrbuB3zAvh1D8LM-18" value="" style="endArrow=none;html=1;fontSize=14;startSize=14;endSize=14;sourcePerimeterSpacing=8;targetPerimeterSpacing=8;entryX=0.5;entryY=1;entryDx=0;entryDy=0;" edge="1" parent="1">
          <mxGeometry width="50" height="50" relative="1" as="geometry">
            <mxPoint x="414" y="725" as="sourcePoint" />
            <mxPoint x="679" y="655" as="targetPoint" />
            <Array as="points">
              <mxPoint x="679" y="725" />
            </Array>
          </mxGeometry>
        </mxCell>
        <mxCell id="9_BYIWrbuB3zAvh1D8LM-19" value="" style="endArrow=classic;html=1;fontSize=14;startSize=14;endSize=14;sourcePerimeterSpacing=8;targetPerimeterSpacing=8;" edge="1" parent="1">
          <mxGeometry width="50" height="50" relative="1" as="geometry">
            <mxPoint x="414" y="680" as="sourcePoint" />
            <mxPoint x="414" y="784" as="targetPoint" />
          </mxGeometry>
        </mxCell>
        <mxCell id="9_BYIWrbuB3zAvh1D8LM-20" value="False" style="text;strokeColor=none;fillColor=none;align=left;verticalAlign=middle;spacingLeft=4;spacingRight=4;overflow=hidden;points=[[0,0.5],[1,0.5]];portConstraint=eastwest;rotatable=0;hachureGap=4;pointerEvents=0;fontSize=14;" vertex="1" parent="1">
          <mxGeometry x="370" y="470" width="44" height="30" as="geometry" />
        </mxCell>
        <mxCell id="9_BYIWrbuB3zAvh1D8LM-21" value="&quot;Tamamlandı&quot; yaz" style="shape=parallelogram;perimeter=parallelogramPerimeter;whiteSpace=wrap;html=1;fixedSize=1;hachureGap=4;pointerEvents=0;fontSize=14;" vertex="1" parent="1">
          <mxGeometry x="319" y="790" width="190" height="60" as="geometry" />
        </mxCell>
        <mxCell id="9_BYIWrbuB3zAvh1D8LM-22" value="" style="endArrow=classic;html=1;fontSize=14;startSize=14;endSize=14;sourcePerimeterSpacing=8;targetPerimeterSpacing=8;" edge="1" parent="1">
          <mxGeometry width="50" height="50" relative="1" as="geometry">
            <mxPoint x="413" y="850" as="sourcePoint" />
            <mxPoint x="413" y="930" as="targetPoint" />
          </mxGeometry>
        </mxCell>
        <mxCell id="9_BYIWrbuB3zAvh1D8LM-23" value="Bitir" style="ellipse;whiteSpace=wrap;html=1;hachureGap=4;pointerEvents=0;fontSize=14;" vertex="1" parent="1">
          <mxGeometry x="354" y="930" width="120" height="80" as="geometry" />
        </mxCell>
      </root>
    </mxGraphModel>
  </diagram>
</mxfile>
